<svg width="24" height="24" viewBox="0 0 24 24" fill="none" xmlns="http://www.w3.org/2000/svg">
<g clip-path="url(#clip0_1715_28719)">
<path d="M22.6753 24C23.4068 24 23.9998 23.4069 23.9998 22.6754V1.32457C23.9998 0.592862 23.4067 0 22.6753 0H1.32457C0.592862 0 0 0.592952 0 1.32457V22.6753C0 23.4069 0.592862 23.9999 1.32457 23.9999L22.6753 24Z" fill="#485A96"/>
<path d="M16.5595 24V14.7059H19.6792L20.1462 11.0838H16.5595V8.77123C16.5595 7.72255 16.8506 7.00793 18.3545 7.00793L20.2725 7.00703V3.76746C19.9407 3.7234 18.8021 3.62476 17.4777 3.62476C14.7123 3.62476 12.819 5.3127 12.819 8.41262V11.0838H9.69141V14.7059H12.819V23.9999L16.5595 24Z" fill="white"/>
</g>
<defs>
<clipPath id="clip0_1715_28719">
<rect width="24" height="24" fill="white"/>
</clipPath>
</defs>
</svg>
