<svg width="24" height="24" viewBox="0 0 24 24" fill="none" xmlns="http://www.w3.org/2000/svg">
<g clip-path="url(#clip0_1715_28712)">
<path d="M23.7148 12.2244C23.7148 11.2412 23.635 10.5236 23.4623 9.77954H12.2344V14.2175H18.8249C18.6921 15.3204 17.9746 16.9814 16.3801 18.0975L16.3577 18.246L19.9078 20.9962L20.1537 21.0208C22.4126 18.9346 23.7148 15.8652 23.7148 12.2244Z" fill="#4285F4"/>
<path d="M12.234 23.9176C15.4628 23.9176 18.1734 22.8545 20.1533 21.0209L16.3797 18.0976C15.3698 18.8018 14.0145 19.2934 12.234 19.2934C9.07157 19.2934 6.38751 17.2074 5.43072 14.324L5.29048 14.3359L1.59906 17.1927L1.55078 17.3269C3.51732 21.2334 7.55674 23.9176 12.234 23.9176Z" fill="#34A853"/>
<path d="M5.42895 14.324C5.17649 13.58 5.03038 12.7826 5.03038 11.9589C5.03038 11.135 5.17649 10.3378 5.41567 9.59366L5.40898 9.43519L1.6713 6.53247L1.54901 6.59064C0.738506 8.21174 0.273438 10.0322 0.273438 11.9589C0.273438 13.8855 0.738506 15.7059 1.54901 17.327L5.42895 14.324Z" fill="#FBBC05"/>
<path d="M12.234 4.62403C14.4795 4.62403 15.9943 5.59402 16.858 6.40461L20.233 3.10928C18.1602 1.1826 15.4628 0 12.234 0C7.55674 0 3.51732 2.68406 1.55078 6.59056L5.41744 9.59359C6.38751 6.7102 9.07157 4.62403 12.234 4.62403Z" fill="#EB4335"/>
</g>
<defs>
<clipPath id="clip0_1715_28712">
<rect width="24" height="24" fill="white"/>
</clipPath>
</defs>
</svg>
