<svg width="14" height="15" viewBox="0 0 14 15" fill="none" xmlns="http://www.w3.org/2000/svg">
<path d="M9.04536 7.00016L8.44536 7.6135C7.96536 8.0935 7.66536 8.50016 7.66536 9.50016H6.33203V9.16683C6.33203 8.42683 6.63203 7.76016 7.11203 7.28016L7.9387 6.44016C8.18536 6.20016 8.33203 5.86683 8.33203 5.50016C8.33203 4.76016 7.73203 4.16683 6.9987 4.16683C6.64508 4.16683 6.30594 4.30731 6.05589 4.55735C5.80584 4.8074 5.66536 5.14654 5.66536 5.50016H4.33203C4.33203 4.79292 4.61298 4.11464 5.11308 3.61454C5.61318 3.11445 6.29145 2.8335 6.9987 2.8335C7.70594 2.8335 8.38422 3.11445 8.88432 3.61454C9.38441 4.11464 9.66537 4.79292 9.66537 5.50016C9.66537 6.08683 9.42536 6.6135 9.04536 7.00016ZM7.66536 12.1668H6.33203V10.8335H7.66536M6.9987 0.833496C6.12322 0.833496 5.25631 1.00593 4.44747 1.34097C3.63864 1.676 2.90371 2.16706 2.28465 2.78612C1.03441 4.03636 0.332031 5.73205 0.332031 7.50016C0.332031 9.26827 1.03441 10.964 2.28465 12.2142C2.90371 12.8333 3.63864 13.3243 4.44747 13.6594C5.25631 13.9944 6.12322 14.1668 6.9987 14.1668C8.76681 14.1668 10.4625 13.4645 11.7127 12.2142C12.963 10.964 13.6654 9.26827 13.6654 7.50016C13.6654 3.8135 10.6654 0.833496 6.9987 0.833496Z" fill="#E67D2D"/>
</svg>
